<mxfile host="app.diagrams.net" agent="Mozilla/5.0 (Windows NT 10.0; Win64; x64) AppleWebKit/537.36 (KHTML, like Gecko) Chrome/140.0.0.0 Safari/537.36" version="28.2.0">
  <diagram name="Page-1" id="aRkRuxBFELAMFq911tWw">
    <mxGraphModel dx="1210" dy="1142" grid="1" gridSize="10" guides="1" tooltips="1" connect="1" arrows="1" fold="1" page="1" pageScale="1" pageWidth="850" pageHeight="1100" math="0" shadow="0">
      <root>
        <mxCell id="0" />
        <mxCell id="1" parent="0" />
        <mxCell id="ql4odA1ZGQbVucotu5OM-17" style="edgeStyle=orthogonalEdgeStyle;rounded=0;orthogonalLoop=1;jettySize=auto;html=1;exitX=1;exitY=0.5;exitDx=0;exitDy=0;exitPerimeter=0;" edge="1" parent="1" source="ql4odA1ZGQbVucotu5OM-2" target="ql4odA1ZGQbVucotu5OM-4">
          <mxGeometry relative="1" as="geometry" />
        </mxCell>
        <mxCell id="ql4odA1ZGQbVucotu5OM-20" style="edgeStyle=orthogonalEdgeStyle;rounded=0;orthogonalLoop=1;jettySize=auto;html=1;exitX=0.5;exitY=1;exitDx=0;exitDy=0;exitPerimeter=0;startArrow=classic;startFill=1;" edge="1" parent="1" source="ql4odA1ZGQbVucotu5OM-2" target="ql4odA1ZGQbVucotu5OM-3">
          <mxGeometry relative="1" as="geometry" />
        </mxCell>
        <mxCell id="ql4odA1ZGQbVucotu5OM-21" value="VRRP +&lt;div&gt;conntrack syncing&lt;/div&gt;" style="edgeLabel;html=1;align=center;verticalAlign=middle;resizable=0;points=[];" vertex="1" connectable="0" parent="ql4odA1ZGQbVucotu5OM-20">
          <mxGeometry x="-0.0191" y="-2" relative="1" as="geometry">
            <mxPoint x="2" y="4" as="offset" />
          </mxGeometry>
        </mxCell>
        <mxCell id="ql4odA1ZGQbVucotu5OM-2" value="Active router" style="sketch=0;points=[[0.5,0,0],[1,0.5,0],[0.5,1,0],[0,0.5,0],[0.145,0.145,0],[0.8555,0.145,0],[0.855,0.8555,0],[0.145,0.855,0]];verticalLabelPosition=top;html=1;verticalAlign=bottom;aspect=fixed;align=center;pointerEvents=1;shape=mxgraph.cisco19.rect;prIcon=router;fillColor=#FAFAFA;strokeColor=#005073;labelPosition=center;" vertex="1" parent="1">
          <mxGeometry x="320" y="385" width="50" height="50" as="geometry" />
        </mxCell>
        <mxCell id="ql4odA1ZGQbVucotu5OM-16" style="edgeStyle=orthogonalEdgeStyle;rounded=0;orthogonalLoop=1;jettySize=auto;html=1;exitX=1;exitY=0.5;exitDx=0;exitDy=0;exitPerimeter=0;" edge="1" parent="1" source="ql4odA1ZGQbVucotu5OM-3" target="ql4odA1ZGQbVucotu5OM-5">
          <mxGeometry relative="1" as="geometry" />
        </mxCell>
        <mxCell id="ql4odA1ZGQbVucotu5OM-3" value="Backup router(s)" style="sketch=0;points=[[0.5,0,0],[1,0.5,0],[0.5,1,0],[0,0.5,0],[0.145,0.145,0],[0.8555,0.145,0],[0.855,0.8555,0],[0.145,0.855,0]];verticalLabelPosition=bottom;html=1;verticalAlign=top;aspect=fixed;align=center;pointerEvents=1;shape=mxgraph.cisco19.rect;prIcon=router;fillColor=#FAFAFA;strokeColor=#005073;" vertex="1" parent="1">
          <mxGeometry x="320" y="665" width="50" height="50" as="geometry" />
        </mxCell>
        <mxCell id="ql4odA1ZGQbVucotu5OM-18" style="edgeStyle=orthogonalEdgeStyle;rounded=0;orthogonalLoop=1;jettySize=auto;html=1;entryX=0.5;entryY=0;entryDx=0;entryDy=0;" edge="1" parent="1" source="ql4odA1ZGQbVucotu5OM-4" target="ql4odA1ZGQbVucotu5OM-6">
          <mxGeometry relative="1" as="geometry" />
        </mxCell>
        <mxCell id="ql4odA1ZGQbVucotu5OM-4" value="VPN gateway 1" style="sketch=0;pointerEvents=1;shadow=0;dashed=0;html=1;strokeColor=none;fillColor=light-dark(#005073, #b2b3b4);aspect=fixed;labelPosition=center;verticalLabelPosition=bottom;verticalAlign=top;align=center;outlineConnect=0;shape=mxgraph.vvd.vpn;" vertex="1" parent="1">
          <mxGeometry x="460" y="455" width="50" height="50" as="geometry" />
        </mxCell>
        <mxCell id="ql4odA1ZGQbVucotu5OM-19" style="edgeStyle=orthogonalEdgeStyle;rounded=0;orthogonalLoop=1;jettySize=auto;html=1;entryX=0.5;entryY=1;entryDx=0;entryDy=0;" edge="1" parent="1" source="ql4odA1ZGQbVucotu5OM-5" target="ql4odA1ZGQbVucotu5OM-6">
          <mxGeometry relative="1" as="geometry" />
        </mxCell>
        <mxCell id="ql4odA1ZGQbVucotu5OM-5" value="VPN gateway N" style="sketch=0;pointerEvents=1;shadow=0;dashed=0;html=1;strokeColor=none;fillColor=light-dark(#005073, #b2b3b4);aspect=fixed;labelPosition=center;verticalLabelPosition=top;verticalAlign=bottom;align=center;outlineConnect=0;shape=mxgraph.vvd.vpn;" vertex="1" parent="1">
          <mxGeometry x="460" y="595" width="50" height="50" as="geometry" />
        </mxCell>
        <mxCell id="ql4odA1ZGQbVucotu5OM-6" value="Internet" style="image;aspect=fixed;perimeter=ellipsePerimeter;html=1;align=center;shadow=0;dashed=0;spacingTop=3;image=img/lib/active_directory/internet_cloud.svg;labelPosition=center;verticalLabelPosition=middle;verticalAlign=middle;" vertex="1" parent="1">
          <mxGeometry x="570" y="505" width="150" height="94.5" as="geometry" />
        </mxCell>
        <mxCell id="ql4odA1ZGQbVucotu5OM-8" style="rounded=0;orthogonalLoop=1;jettySize=auto;html=1;exitX=1;exitY=0.4;exitDx=0;exitDy=0;exitPerimeter=0;entryX=0.145;entryY=0.855;entryDx=0;entryDy=0;entryPerimeter=0;" edge="1" parent="1" source="ql4odA1ZGQbVucotu5OM-11" target="ql4odA1ZGQbVucotu5OM-2">
          <mxGeometry relative="1" as="geometry">
            <mxPoint x="209.25" y="525.75" as="sourcePoint" />
          </mxGeometry>
        </mxCell>
        <mxCell id="ql4odA1ZGQbVucotu5OM-9" style="rounded=0;orthogonalLoop=1;jettySize=auto;html=1;exitX=1;exitY=0.4;exitDx=0;exitDy=0;exitPerimeter=0;entryX=0.145;entryY=0.145;entryDx=0;entryDy=0;entryPerimeter=0;endArrow=classic;endFill=1;" edge="1" parent="1" source="ql4odA1ZGQbVucotu5OM-11" target="ql4odA1ZGQbVucotu5OM-3">
          <mxGeometry relative="1" as="geometry">
            <mxPoint x="209.25" y="574.25" as="sourcePoint" />
          </mxGeometry>
        </mxCell>
        <mxCell id="ql4odA1ZGQbVucotu5OM-11" value="Client pod(s)" style="points=[[0.03,0.03,0],[0.5,0,0],[0.97,0.03,0],[1,0.4,0],[0.97,0.745,0],[0.5,1,0],[0.03,0.745,0],[0,0.4,0]];verticalLabelPosition=bottom;sketch=0;html=1;verticalAlign=top;aspect=fixed;align=center;pointerEvents=1;shape=mxgraph.cisco19.workstation;fillColor=#005073;strokeColor=none;" vertex="1" parent="1">
          <mxGeometry x="130" y="530" width="62.5" height="50" as="geometry" />
        </mxCell>
      </root>
    </mxGraphModel>
  </diagram>
</mxfile>
